<?xml version="1.0" standalone="no"?>
<!DOCTYPE svg PUBLIC "-//W3C//DTD SVG 20010904//EN"
 "http://www.w3.org/TR/2001/REC-SVG-20010904/DTD/svg10.dtd">
<svg version="1.0" xmlns="http://www.w3.org/2000/svg"
 width="500.000000pt" height="500.000000pt" viewBox="0 0 500.000000 500.000000"
 preserveAspectRatio="xMidYMid meet">

<g transform="translate(0.000000,500.000000) scale(0.100000,-0.100000)"
fill="#000000" stroke="none">
<path d="M2154 3129 c-81 -23 -106 -122 -45 -182 27 -27 39 -32 80 -32 57 0
93 26 111 81 27 81 -58 158 -146 133z"/>
<path d="M2738 2874 c-35 -19 -48 -43 -48 -92 0 -90 110 -129 173 -62 46 51
35 125 -23 155 -36 19 -67 19 -102 -1z"/>
<path d="M2010 2838 c-58 -40 -69 -74 -70 -228 0 -153 9 -180 60 -180 l29 0 3
138 c3 134 4 137 26 140 l22 3 0 -380 c0 -366 1 -381 19 -391 28 -14 67 -12
80 4 10 12 16 12 41 -2 22 -13 35 -14 57 -6 l28 9 3 303 c1 166 -2 302 -6 302
-16 0 -62 97 -62 129 0 23 5 31 18 31 13 0 21 -13 29 -42 21 -76 101 -156 217
-215 l49 -25 59 28 c57 27 58 28 58 71 0 49 -7 52 -65 28 -43 -18 -63 -14
-125 28 -73 50 -110 99 -110 147 0 38 -22 78 -58 105 -23 17 -46 21 -147 23
-112 3 -122 2 -155 -20z"/>
<path d="M2727 2632 c-15 -16 -17 -47 -17 -219 0 -181 2 -201 18 -216 15 -14
41 -17 145 -17 l126 0 42 -85 c43 -88 63 -105 108 -90 39 12 35 46 -18 161
-28 60 -55 116 -60 124 -6 12 -33 16 -120 18 -103 2 -111 4 -111 22 0 18 7 20
78 20 64 0 82 4 95 18 45 49 6 82 -96 82 l-77 0 0 78 c0 94 -15 122 -64 122
-19 0 -40 -8 -49 -18z"/>
<path d="M2611 2375 c-44 -50 -60 -85 -67 -148 -13 -111 46 -221 148 -271 98
-49 236 -27 307 48 19 21 20 26 9 52 -17 40 -17 40 -34 15 -9 -12 -34 -34 -57
-48 -33 -21 -54 -27 -102 -27 -122 1 -205 83 -205 206 0 47 27 119 50 133 5 3
10 22 10 41 0 45 -19 44 -59 -1z"/>
<path d="M1848 2376 c-14 -10 -18 -28 -18 -83 0 -40 5 -74 12 -81 8 -8 45 -12
100 -12 l88 0 0 95 0 95 -82 0 c-53 -1 -89 -5 -100 -14z"/>
<path d="M1391 1740 c-63 -15 -76 -39 -76 -140 0 -80 2 -92 23 -112 19 -20 33
-23 95 -23 67 0 72 2 75 23 3 21 0 22 -59 22 -76 0 -88 13 -88 90 0 79 14 95
89 93 53 -2 60 0 60 17 0 10 -3 21 -7 23 -19 10 -81 14 -112 7z"/>
<path d="M2790 1720 c0 -15 7 -20 25 -20 18 0 25 5 25 20 0 15 -7 20 -25 20
-18 0 -25 -5 -25 -20z"/>
<path d="M2890 1600 l0 -140 25 0 c24 0 25 3 25 55 l0 55 55 0 c48 0 55 2 55
20 0 18 -7 20 -55 20 l-55 0 0 40 0 40 60 0 c57 0 60 1 60 25 0 25 -1 25 -85
25 l-85 0 0 -140z"/>
<path d="M3100 1600 l0 -140 25 0 25 0 0 140 0 140 -25 0 -25 0 0 -140z"/>
<path d="M2640 1695 c0 -16 -6 -25 -15 -25 -9 0 -15 -9 -15 -25 0 -16 6 -25
15 -25 12 0 15 -13 15 -58 0 -76 18 -102 71 -102 32 0 39 3 39 19 0 14 -8 21
-27 23 -27 3 -28 6 -31 61 l-3 57 31 0 c27 0 31 3 28 23 -2 16 -11 23 -30 25
-22 3 -28 9 -28 28 0 19 -5 24 -25 24 -20 0 -25 -5 -25 -25z"/>
<path d="M1569 1651 c-21 -17 -24 -28 -24 -86 0 -83 20 -105 95 -105 62 0 89
22 97 77 12 88 -22 133 -98 133 -31 0 -55 -6 -70 -19z m103 -38 c22 -20 24
-76 2 -97 -37 -37 -84 -7 -84 54 0 55 43 78 82 43z"/>
<path d="M1787 1663 c-4 -3 -7 -51 -7 -105 0 -98 0 -98 25 -98 25 0 25 1 25
85 0 79 1 85 21 85 49 0 59 -16 59 -95 0 -73 1 -75 25 -75 25 0 25 1 25 79 0
64 -4 83 -21 105 -18 23 -27 26 -83 26 -34 0 -66 -3 -69 -7z"/>
<path d="M2017 1663 c-4 -3 -7 -51 -7 -105 0 -98 0 -98 25 -98 25 0 25 1 25
85 0 79 1 85 21 85 49 0 59 -16 59 -95 0 -68 2 -75 20 -75 19 0 20 7 20 89 0
82 -2 91 -22 105 -23 16 -128 23 -141 9z"/>
<path d="M2263 1655 c-44 -31 -48 -131 -7 -176 15 -16 29 -19 78 -17 54 3 61
5 64 25 3 22 1 22 -42 17 -30 -5 -51 -2 -61 6 -28 23 -16 30 50 30 l65 0 0 39
c0 58 -31 91 -84 91 -23 0 -51 -7 -63 -15z m85 -37 c24 -24 13 -38 -28 -38
-26 0 -40 5 -40 13 0 18 21 37 40 37 9 0 21 -5 28 -12z"/>
<path d="M2474 1647 c-26 -23 -29 -31 -29 -87 0 -78 21 -100 96 -100 42 0 49
3 49 20 0 16 -7 20 -34 20 -42 0 -66 22 -66 59 0 43 22 65 64 64 33 -1 37 2
34 20 -5 34 -76 36 -114 4z"/>
<path d="M2790 1565 l0 -105 25 0 25 0 0 105 0 105 -25 0 -25 0 0 -105z"/>
<path d="M3229 1657 c-25 -19 -39 -52 -39 -92 0 -71 33 -104 103 -105 39 0 52
5 72 26 40 43 32 136 -14 171 -21 16 -101 16 -122 0z m91 -47 c37 -37 18 -110
-28 -110 -29 0 -42 15 -48 52 -5 28 -2 40 15 57 26 26 36 26 61 1z"/>
<path d="M3410 1653 c0 -10 7 -40 15 -68 9 -27 20 -67 26 -87 8 -33 14 -38 39
-38 26 0 30 5 40 43 19 73 22 75 39 17 14 -47 21 -55 44 -58 31 -4 37 7 63
103 29 109 29 105 0 105 -20 0 -27 -6 -32 -27 -3 -16 -11 -48 -18 -73 l-12
-45 -19 73 c-16 63 -22 72 -42 72 -18 0 -24 -8 -33 -42 -27 -112 -25 -110 -44
-43 -10 33 -19 66 -21 73 -7 19 -45 15 -45 -5z"/>
</g>
</svg>
